<svg viewBox="0 0 40 26" fill="none" xmlns="http://www.w3.org/2000/svg">
<rect x="0.375" y="0.375" width="39.25" height="25.25" rx="2.625" fill="white" stroke="#EEEEEE" stroke-width="0.75" stroke-linecap="round" stroke-linejoin="round"/>
<rect x="0.644531" y="0.649902" width="38.7097" height="24.7" rx="2.25" fill="white"/>
<mask id="mask0_1525_13929" style="mask-type:luminance" maskUnits="userSpaceOnUse" x="0" y="0" width="40" height="26">
<rect x="0.644531" y="0.649902" width="38.7097" height="24.7" rx="2.25" fill="white"/>
</mask>
<g mask="url(#mask0_1525_13929)">
<path fill-rule="evenodd" clip-rule="evenodd" d="M40.0007 15.6001C40.0007 15.6001 29.5195 22.7846 10.3232 26.0001H40.0007V15.6001Z" fill="#EE7B11"/>
<path fill-rule="evenodd" clip-rule="evenodd" d="M5.01153 11.687C4.66488 11.9842 4.21441 12.1137 3.50145 12.1137H3.20529V8.56477H3.50145C4.21441 8.56477 4.64718 8.68585 5.01153 8.99893C5.39314 9.32113 5.62264 9.82081 5.62264 10.3348C5.62264 10.85 5.39314 11.3648 5.01153 11.687ZM3.72233 7.65601H2.10254V13.0225H3.71381C4.57059 13.0225 5.18913 12.8309 5.73227 12.403C6.3777 11.8965 6.75932 11.1328 6.75932 10.3431C6.75932 8.75924 5.51196 7.65601 3.72233 7.65601Z" fill="#1D1D1B"/>
<path fill-rule="evenodd" clip-rule="evenodd" d="M7.26758 13.023H8.37112V7.65631H7.26758V13.023Z" fill="#1D1D1B"/>
<path fill-rule="evenodd" clip-rule="evenodd" d="M11.0688 9.71539C10.4066 9.48297 10.2123 9.32974 10.2123 9.03968C10.2123 8.70172 10.5587 8.44483 11.0343 8.44483C11.3648 8.44483 11.6367 8.57379 11.9241 8.87941L12.5015 8.16223C12.027 7.7685 11.4594 7.56738 10.8391 7.56738C9.83809 7.56738 9.07464 8.22671 9.07464 9.10499C9.07464 9.84435 9.43003 10.2229 10.4665 10.5767C10.8986 10.7214 11.1185 10.8176 11.2293 10.8823C11.4498 11.0189 11.5602 11.2124 11.5602 11.4377C11.5602 11.8725 11.1958 12.1947 10.7034 12.1947C10.1771 12.1947 9.75307 11.9449 9.4991 11.4788L8.78613 12.13C9.29452 12.8381 9.90519 13.1518 10.7449 13.1518C11.8915 13.1518 12.6961 12.4284 12.6961 11.3896C12.6961 10.5369 12.3241 10.151 11.0688 9.71539Z" fill="#1D1D1B"/>
<path fill-rule="evenodd" clip-rule="evenodd" d="M13.0449 10.343C13.0449 11.9205 14.3506 13.1435 16.031 13.1435C16.5059 13.1435 16.9129 13.055 17.4145 12.8309V11.5987C16.9734 12.0175 16.5826 12.1865 16.0823 12.1865C14.9709 12.1865 14.1821 11.422 14.1821 10.3352C14.1821 9.30491 14.9958 8.49215 16.031 8.49215C16.5573 8.49215 16.9557 8.67025 17.4145 9.09591V7.86433C16.9302 7.63129 16.5319 7.53467 16.057 7.53467C14.3852 7.53467 13.0449 8.78263 13.0449 10.343Z" fill="#1D1D1B"/>
<path fill-rule="evenodd" clip-rule="evenodd" d="M26.1644 11.261L24.6558 7.65625H23.4502L25.8509 13.1606H26.4448L28.8888 7.65625H27.6926L26.1644 11.261Z" fill="#1D1D1B"/>
<path fill-rule="evenodd" clip-rule="evenodd" d="M29.3867 13.0229H32.5162V12.1144H30.4894V10.6657H32.4416V9.75678H30.4894V8.56563H32.5162V7.65625H29.3867V13.0229Z" fill="#1D1D1B"/>
<path fill-rule="evenodd" clip-rule="evenodd" d="M34.6722 10.1263H34.3499V8.50098H34.6897C35.3771 8.50098 35.7506 8.77404 35.7506 9.29632C35.7506 9.83581 35.3771 10.1263 34.6722 10.1263ZM36.8858 9.24047C36.8858 8.23572 36.1562 7.65601 34.8837 7.65601H33.2473V13.0227H34.3495V10.8668H34.4936L36.0209 13.0227H37.378L35.5969 10.7619C36.4281 10.6016 36.8858 10.0621 36.8858 9.24047Z" fill="#1D1D1B"/>
<path fill-rule="evenodd" clip-rule="evenodd" d="M23.7807 10.3426C23.7807 11.9186 22.4348 13.196 20.7726 13.196C19.1112 13.196 17.7646 11.9186 17.7646 10.3426C17.7646 8.76641 19.1112 7.48901 20.7726 7.48901C22.4348 7.48901 23.7807 8.76641 23.7807 10.3426Z" fill="#EE7B11"/>
<path fill-rule="evenodd" clip-rule="evenodd" d="M37.2662 7.82768H37.2461V7.7041H37.2675C37.3257 7.7041 37.3565 7.72425 37.3565 7.76496C37.3565 7.8067 37.3253 7.82768 37.2662 7.82768ZM37.4755 7.76276C37.4755 7.66869 37.4072 7.61719 37.287 7.61719H37.127V8.08963H37.2458V7.90626L37.3853 8.08963H37.5302L37.3664 7.89484C37.4365 7.87677 37.4755 7.82839 37.4755 7.76276Z" fill="#1D1D1B"/>
<path fill-rule="evenodd" clip-rule="evenodd" d="M37.3082 8.18928C37.1183 8.18928 36.9629 8.03917 36.9629 7.85216C36.9629 7.66431 37.1161 7.5144 37.3082 7.5144C37.4973 7.5144 37.6514 7.66763 37.6514 7.85216C37.6514 8.03772 37.4973 8.18928 37.3082 8.18928ZM37.3104 7.44043C37.0686 7.44043 36.877 7.62309 36.877 7.85158C36.877 8.07986 37.0708 8.26273 37.3104 8.26273C37.5455 8.26273 37.7381 8.07778 37.7381 7.85158C37.7381 7.62641 37.5455 7.44043 37.3104 7.44043Z" fill="#1D1D1B"/>
</g>
</svg>
