<svg width="43" height="50" viewBox="0 0 43 50" fill="none" xmlns="http://www.w3.org/2000/svg">
<path d="M1.24231 38.9884L20.1057 48.5683L38.2529 38.9884V1.52686H1.24231V38.9884Z" fill="white"/>
<path d="M38.6347 1.66846L0.860107 39.6543L20.4399 49.3295L38.6347 40.0356V1.66846Z" fill="#F2F3F2"/>
<path d="M0 14.0155V39.8001L0.668577 40.1338L19.532 49.7136L20.1051 49.9996L20.6781 49.7136L38.873 40.1338L39.5416 39.8001V0.289062H0V14.0155ZM1.24164 39.0852V1.52825H38.2999V39.0852L20.1051 48.6651L1.24164 39.0852Z" fill="#DCDEDC"/>
<path d="M19.7704 2.14638C19.9615 2.14638 20.1525 2.14638 20.3435 2.19404L19.7704 3.29024C18.9108 3.24258 18.1468 3.90983 18.099 4.76773C18.0512 5.62563 18.7198 6.3882 19.5794 6.43586H19.7704C20.1525 6.43586 20.5345 6.29288 20.8211 6.05457L21.4419 7.10312C20.9643 7.43674 20.3913 7.62739 19.7704 7.62739C18.2423 7.67505 16.9529 6.53118 16.9051 5.00603C16.8574 3.48088 18.0035 2.19404 19.5317 2.14638H19.7704ZM21.7284 4.48176L22.4447 5.67329L21.7284 6.81715L21.0598 5.67329H19.6749L20.3913 4.48176H21.7284ZM20.5823 4.05281C20.5823 3.86217 20.63 3.67153 20.7255 3.52854C20.8211 3.38556 21.0121 3.24258 21.1553 3.14726L21.2509 3.09959C21.4419 3.00427 21.4896 2.95661 21.4896 2.86129C21.4896 2.76597 21.3464 2.67065 21.2509 2.67065C21.0598 2.67065 20.9166 2.76597 20.8211 2.95661L20.5823 2.71831C20.63 2.62298 20.7255 2.52766 20.8211 2.43234C20.9643 2.33702 21.1076 2.33702 21.2509 2.33702C21.3941 2.33702 21.5851 2.38468 21.6807 2.48C21.7762 2.57532 21.8717 2.71831 21.8717 2.86129C21.8717 3.09959 21.7284 3.29024 21.4419 3.38556L21.2986 3.48088C21.1553 3.5762 21.0598 3.62386 21.0121 3.76685H21.8717V4.10047L20.5823 4.05281ZM19.7704 10.0104L24.3072 7.43674V0.287598H15.1859V7.38908L19.7704 10.0104Z" fill="#FF492C"/>
<path d="M8.50055 19.5405V15.3463C8.50055 15.2986 8.54831 15.251 8.59607 15.251H9.69444C9.7422 15.251 9.78995 15.2986 9.78995 15.3463V19.5405C9.78995 20.1601 10.2198 20.6367 10.8883 20.6367C11.5569 20.6367 11.9867 20.2077 11.9867 19.5405V15.3463C11.9867 15.2986 12.0345 15.251 12.0822 15.251H13.1806C13.2283 15.251 13.2761 15.2986 13.2761 15.3463V19.5405C13.2761 20.875 12.321 21.7329 10.8883 21.7329C9.45566 21.7329 8.50055 20.8273 8.50055 19.5405ZM14.0879 20.3507V20.2554C14.0879 20.2077 14.1357 20.1601 14.1835 20.1601H15.1863C15.2341 20.1601 15.2818 20.2077 15.2818 20.2554C15.2818 20.5414 15.6161 20.732 16.0937 20.732C16.5235 20.732 16.81 20.5414 16.81 20.3031C16.81 19.9218 16.0937 19.9218 15.4251 19.6835C14.8043 19.4928 14.1357 19.1592 14.1357 18.349C14.1357 17.4434 14.8998 16.8715 16.0937 16.8715C17.2876 16.8715 18.0517 17.4911 18.0517 18.349C18.0517 18.3966 18.0039 18.4443 17.9561 18.4443H16.9533C16.9055 18.4443 16.8578 18.3966 16.8578 18.349C16.8578 18.063 16.5712 17.8723 16.0937 17.8723C15.7116 17.8723 15.4251 18.0153 15.4251 18.3013C15.4251 18.6826 16.0459 18.6826 16.7623 18.9209C17.4786 19.1115 18.1949 19.4452 18.1949 20.3031C18.1949 21.2086 17.3831 21.7329 16.1892 21.7329C14.8998 21.7329 14.0879 21.161 14.0879 20.3507ZM23.1137 19.5881C23.1137 19.6835 23.066 19.6835 22.9705 19.6835H20.1051C20.0574 19.6835 20.0574 19.6835 20.0574 19.7311C20.0574 19.8741 20.1051 19.9694 20.1529 20.1124C20.2962 20.4461 20.5827 20.6367 21.108 20.6367C21.5378 20.6367 21.8243 20.4461 22.0631 20.1601C22.1109 20.1124 22.1586 20.0648 22.2064 20.1601L22.875 20.8273C22.9227 20.875 22.9227 20.9227 22.875 20.9703C22.4452 21.4946 21.7766 21.7806 21.0125 21.7806C19.9619 21.7806 19.2455 21.2563 18.9113 20.3984C18.768 20.0648 18.7202 19.7311 18.7202 19.2545C18.7202 18.9209 18.768 18.5873 18.8635 18.3013C19.15 17.4434 19.8664 16.8715 20.8692 16.8715C22.1109 16.8715 22.875 17.6817 23.0182 18.8256C23.1137 19.0639 23.1137 19.3022 23.1137 19.5881ZM20.1529 18.4919C20.1051 18.5873 20.1051 18.6826 20.1051 18.7779C20.1051 18.8256 20.1051 18.8256 20.1529 18.8256H21.7288C21.7766 18.8256 21.7766 18.8256 21.7766 18.7779C21.7766 18.6826 21.7288 18.5873 21.7288 18.5396C21.6333 18.1583 21.3468 17.9677 20.917 17.9677C20.5349 17.9677 20.2962 18.1583 20.1529 18.4919ZM26.8387 17.0144C26.8864 17.0621 26.8864 17.1098 26.8864 17.1574L26.6954 18.206C26.6954 18.3013 26.6476 18.3013 26.5521 18.2536C26.4089 18.206 26.2178 18.206 26.0268 18.206C25.597 18.2536 25.215 18.5396 25.215 19.0162V21.5423C25.215 21.5899 25.1672 21.6376 25.1195 21.6376H24.0211C23.9733 21.6376 23.9256 21.5899 23.9256 21.5423V17.0621C23.9256 17.0144 23.9733 16.9668 24.0211 16.9668H25.1195C25.1672 16.9668 25.215 17.0144 25.215 17.0621V17.3957C25.215 17.4434 25.2627 17.4434 25.2627 17.4434C25.5015 17.1098 25.8358 16.8715 26.2656 16.8715C26.5521 16.8715 26.6954 16.9191 26.8387 17.0144ZM27.2207 20.3507V20.2554C27.2207 20.2077 27.2685 20.1601 27.3162 20.1601H28.3191C28.3668 20.1601 28.4146 20.2077 28.4146 20.2554C28.4146 20.5414 28.7489 20.732 29.2264 20.732C29.6562 20.732 29.9428 20.5414 29.9428 20.3031C29.9428 19.9218 29.2264 19.9218 28.5579 19.6835C27.937 19.4928 27.2685 19.1592 27.2685 18.349C27.2685 17.4434 28.0326 16.8715 29.2264 16.8715C30.4203 16.8715 31.1844 17.4911 31.1844 18.349C31.1844 18.3966 31.1367 18.4443 31.0889 18.4443H30.086C30.0383 18.4443 29.9905 18.3966 29.9905 18.349C29.9905 18.063 29.704 17.8723 29.2264 17.8723C28.8444 17.8723 28.5579 18.0153 28.5579 18.3013C28.5579 18.6826 29.1787 18.6826 29.895 18.9209C30.6114 19.1115 31.3277 19.4452 31.3277 20.3031C31.3277 21.2086 30.5158 21.7329 29.322 21.7329C28.0326 21.7329 27.2207 21.161 27.2207 20.3507ZM4.34583 29.2634V23.0674C4.34583 23.0198 4.39358 22.9721 4.44134 22.9721H5.53971C5.58747 22.9721 5.63522 23.0198 5.63522 23.0674V28.2148C5.63522 28.2625 5.63522 28.2625 5.68298 28.2625H8.69158C8.73933 28.2625 8.78709 28.3102 8.78709 28.3578V29.2634C8.78709 29.311 8.73933 29.3587 8.69158 29.3587H4.44134C4.39358 29.3587 4.34583 29.311 4.34583 29.2634ZM9.55118 27.9289C9.45566 27.6429 9.40791 27.3093 9.40791 26.9756C9.40791 26.642 9.45566 26.2607 9.55118 26.0224C9.83771 25.1169 10.6018 24.5926 11.6524 24.5926C12.6553 24.5926 13.4194 25.1645 13.7059 26.0224C13.8014 26.3084 13.8492 26.642 13.8492 26.9756C13.8492 27.3093 13.8014 27.6429 13.7059 27.8812C13.4194 28.8344 12.6553 29.4064 11.6524 29.4064C10.6018 29.454 9.78995 28.8821 9.55118 27.9289ZM12.4643 27.6429C12.512 27.4522 12.5598 27.2139 12.5598 27.0233C12.5598 26.785 12.512 26.5467 12.4643 26.356C12.321 25.9271 12.0345 25.6888 11.6524 25.6888C11.2226 25.6888 10.9361 25.9271 10.8406 26.356C10.7451 26.499 10.7451 26.7373 10.7451 27.0233C10.7451 27.2616 10.7451 27.4999 10.7928 27.6429C10.9361 28.0718 11.2226 28.3102 11.6524 28.3102C12.0345 28.3578 12.321 28.0718 12.4643 27.6429ZM15.6161 29.2634L14.1357 24.7356C14.0879 24.6402 14.1357 24.5926 14.2312 24.5926H15.4251C15.4729 24.5926 15.5206 24.6402 15.5684 24.6879L16.3325 27.4522C16.3325 27.4999 16.3802 27.4999 16.3802 27.4522L17.1443 24.6879C17.1443 24.6402 17.1921 24.5926 17.2876 24.5926H18.4815C18.577 24.5926 18.6247 24.6402 18.577 24.7356L17.0965 29.2157C17.0965 29.2634 17.0488 29.311 16.9533 29.311H15.7594C15.6639 29.3587 15.6161 29.3587 15.6161 29.2634ZM23.1615 27.3093C23.1615 27.4046 23.1137 27.4046 23.0182 27.4046H20.1529C20.1051 27.4046 20.1051 27.4046 20.1051 27.4522C20.1051 27.5952 20.1529 27.6906 20.2007 27.8335C20.3439 28.1672 20.6305 28.3578 21.1558 28.3578C21.5856 28.3578 21.8721 28.1672 22.1109 27.8812C22.1586 27.8335 22.2064 27.7859 22.2541 27.8812L22.9227 28.5485C22.9705 28.5961 22.9705 28.6438 22.9227 28.6914C22.4929 29.2157 21.8243 29.5017 21.0603 29.5017C20.0096 29.5017 19.2933 28.9774 18.959 28.1195C18.8157 27.7859 18.768 27.4522 18.768 26.9756C18.768 26.642 18.8157 26.3084 18.9113 26.0224C19.1978 25.1645 19.9141 24.5926 20.917 24.5926C22.1586 24.5926 22.9227 25.4028 23.066 26.5467C23.1615 26.785 23.1615 27.0233 23.1615 27.3093ZM20.2007 26.2131C20.1529 26.3084 20.1529 26.4037 20.1529 26.499C20.1529 26.5467 20.1529 26.5467 20.2007 26.5467H21.7766C21.8243 26.5467 21.8243 26.5467 21.8243 26.499C21.8243 26.4037 21.7766 26.3084 21.7766 26.2607C21.6811 25.8794 21.3945 25.6888 20.9647 25.6888C20.5349 25.6888 20.2962 25.8794 20.2007 26.2131ZM25.8358 27.2616V23.0674C25.8358 23.0198 25.8836 22.9721 25.9313 22.9721H27.0297C27.0774 22.9721 27.1252 23.0198 27.1252 23.0674V27.2616C27.1252 27.8812 27.555 28.3578 28.2236 28.3578C28.8922 28.3578 29.322 27.9289 29.322 27.2616V23.0674C29.322 23.0198 29.3697 22.9721 29.4175 22.9721H30.5158C30.5636 22.9721 30.6114 23.0198 30.6114 23.0674V27.2616C30.6114 28.5961 29.6562 29.454 28.2236 29.454C26.7909 29.454 25.8358 28.5485 25.8358 27.2616ZM31.4232 28.0718V27.9765C31.4232 27.9289 31.471 27.8812 31.5187 27.8812H32.5216C32.5693 27.8812 32.6171 27.9289 32.6171 27.9765C32.6171 28.2625 32.9514 28.4531 33.4289 28.4531C33.8587 28.4531 34.1453 28.2625 34.1453 28.0242C34.1453 27.6429 33.4289 27.6429 32.7604 27.4046C32.1395 27.2139 31.471 26.8803 31.471 26.0701C31.471 25.1645 32.235 24.5926 33.4289 24.5926C34.6228 24.5926 35.3869 25.2122 35.3869 26.0701C35.3869 26.1177 35.3392 26.1654 35.2914 26.1654H34.2885C34.2408 26.1654 34.193 26.1177 34.193 26.0701C34.193 25.7841 33.9065 25.5935 33.4289 25.5935C33.0469 25.5935 32.7604 25.7364 32.7604 26.0224C32.7604 26.4037 33.3812 26.4037 34.0975 26.642C34.8138 26.8327 35.5302 27.1663 35.5302 28.0242C35.5302 28.9297 34.7183 29.454 33.5244 29.454C32.235 29.454 31.4232 28.8821 31.4232 28.0718Z" fill="black"/>
<path d="M6.59119 34.8394H16.1423V35.2212H6.59119V34.8394ZM23.6877 34.8394H33.2388V35.2212H23.6877V34.8394Z" fill="black"/>
<path d="M17.6218 34.4096L19.1022 34.1713L19.8663 32.6938L20.5827 34.1237L22.1586 34.4096L21.0602 35.5058L21.299 37.0787L19.8663 36.4114L18.4337 37.0787L18.6247 35.5058L17.6218 34.4096Z" fill="#DCDEDC"/>
</svg>
