 <svg width="120" height="51" viewBox="0 0 120 51" fill="none" xmlns="http://www.w3.org/2000/svg">
                            <path d="M30.413 18.0947L23.5802 36.3141H18.0923L10.4242 24.3153L5.91967 36.3141H0.868164L7.70093 18.0967H12.9341L20.6378 30.7195L25.3615 18.0967H30.413V18.0947Z" fill="white" />
                            <path d="M36.6514 28.4011H46.8353L47.9254 25.4607H37.7553L36.6514 28.4011Z" fill="white" />
                            <path d="M33.0986 33.3716H44.9809L43.8553 36.3121H26.1572L32.988 18.0947H72.4838L71.3937 21.0352H62.9633L59.4324 30.4312L57.2206 36.3121H51.3694L53.352 31.0355L57.112 21.0352H37.7492" fill="white" />
                            <path d="M104.802 25.8483C104.794 25.8402 104.785 25.8341 104.777 25.824L104.802 25.8483Z" fill="white" />
                            <path d="M117.201 48.6919C114.328 51.5652 109.628 51.5652 106.755 48.6919L104.647 46.5848L104.778 46.4545C110.443 40.7889 110.451 31.5232 104.801 25.8477L117.201 38.2453C120.075 41.1187 120.075 45.8206 117.201 48.6919Z" fill="white" />
                            <path d="M94.3568 36.2942L81.9571 48.6919C79.0838 51.5652 74.3838 51.5652 71.5104 48.6919C70.3749 47.5564 69.6897 46.1385 69.4507 44.6574C69.0854 42.3904 69.7706 39.9831 71.5104 38.2453L73.5938 36.1619C76.4296 33.3261 80.1699 31.9062 83.9082 31.9062C87.6484 31.9062 91.3867 33.3241 94.2245 36.1619L94.3568 36.2942Z" fill="white" />
                            <path d="M88.2942 15.4011C88.2942 19.1413 86.8763 22.8796 84.0385 25.7154L83.9082 25.8457L71.5105 13.448C68.6371 10.5747 68.6371 5.87472 71.5105 3.00141C72.646 1.86591 74.0639 1.18066 75.545 0.941716C75.9379 0.878523 76.3368 0.846924 76.7338 0.846924C78.6276 0.846924 80.5194 1.56377 81.9571 3.00141L84.0405 5.0848C86.8763 7.92257 88.2942 11.6628 88.2942 15.4011Z" fill="white" />
                            <path d="M119.355 8.22673C119.355 10.1205 118.639 12.0144 117.201 13.45L106.867 23.7841L106.748 23.6656C101.075 17.992 101.075 8.70858 106.748 3.03503C106.924 2.85928 107.106 2.68747 107.287 2.52159C107.287 2.52159 107.289 2.52159 107.289 2.51961C110.183 0.143949 114.499 0.305879 117.201 3.00541C118.639 4.4391 119.355 6.33291 119.355 8.22673Z" fill="white" />
                            <path d="M94.6019 36.0493L82.2022 48.447C79.3289 51.3203 74.6289 51.3203 71.7556 48.447C70.62 47.3115 69.9348 45.8936 69.6958 44.4125C69.3305 42.1455 70.0158 39.7382 71.7556 38.0004L73.839 35.919C76.6747 33.0832 80.415 31.6633 84.1533 31.6633C87.8935 31.6633 91.6318 33.0812 94.4696 35.919L94.6019 36.0493Z" fill="white" />
                            <path d="M84.1553 26.0925L71.7575 13.6929C68.8842 10.8196 68.8842 6.11957 71.7575 3.24627C72.893 2.11077 74.3109 1.42552 75.792 1.18657C78.0591 0.821236 80.4663 1.50648 82.2042 3.24627L84.2876 5.32967C87.1234 8.16545 88.5432 11.9057 88.5432 15.6439C88.5432 19.3842 87.1253 23.1225 84.2876 25.9602L84.1553 26.0925Z" fill="white" />
                            <path d="M104.671 25.7173C99.0109 20.0576 89.759 20.0438 84.0835 25.6758C84.0697 25.6897 84.0558 25.7035 84.04 25.7173C86.8758 22.8815 88.2957 19.1413 88.2957 15.403C88.2957 11.6648 86.8778 7.92453 84.04 5.08875L94.3563 15.403L104.671 25.7173Z" fill="white" />
                            <path d="M104.778 46.4545L104.647 46.5849L94.2244 36.1619C91.3886 33.3262 87.6483 31.9063 83.9081 31.9063C80.1698 31.9063 76.4295 33.3242 73.5938 36.1619L83.91 25.8477L84.0404 25.7173C84.0542 25.7035 84.068 25.6897 84.0838 25.6759C89.7613 20.0458 99.0132 20.0596 104.671 25.7173L104.778 25.8259C104.786 25.8338 104.793 25.8417 104.801 25.8496C110.451 31.5232 110.443 40.7889 104.778 46.4545Z" fill="white" />
                        </svg>