<svg  viewBox="0 0 40 26"  xmlns="http://www.w3.org/2000/svg">
<rect x="0.375" y="0.375" width="39.25" height="25.25" rx="2.625" fill="white" stroke="#EEEEEE" stroke-width="0.75" stroke-linecap="round" stroke-linejoin="round"/>
<path fill-rule="evenodd" clip-rule="evenodd" d="M29.4564 19.7821V18.3198H29.1132V19.168C28.9903 19.0116 28.7987 18.9232 28.5984 18.9305C28.1246 18.9305 27.7404 19.3103 27.7404 19.7787C27.7404 20.2472 28.1246 20.6269 28.5984 20.6269C28.7987 20.6342 28.9903 20.5458 29.1132 20.3894V20.5862H29.4564V19.7821ZM18.8175 18.9717H19.4043L19.4077 19.294H18.8243V20.0336C18.8243 20.1965 18.8895 20.3051 19.0611 20.3051C19.1725 20.3014 19.2811 20.2699 19.3769 20.2134L19.4798 20.5154C19.346 20.5979 19.1914 20.6415 19.0337 20.6409C18.6115 20.6409 18.464 20.417 18.464 20.0404V19.294H18.1311V18.9717H18.4571V18.4797H18.8175V18.9717ZM14.0723 19.5752V20.593L13.712 20.5998V19.6973C13.712 19.4225 13.5953 19.2698 13.3516 19.2698C13.2373 19.2644 13.1265 19.3093 13.049 19.3925C12.9714 19.4757 12.9352 19.5886 12.9501 19.7007V20.5998H12.5898V19.6973C12.5898 19.4225 12.4696 19.2698 12.2328 19.2698C12.1184 19.2637 12.0071 19.3085 11.9294 19.3918C11.8518 19.4752 11.8158 19.5884 11.8313 19.7007V20.593H11.4709V18.9713H11.8279V19.1715C11.9335 19.0126 12.1163 18.921 12.3083 18.9306C12.5289 18.9212 12.7369 19.0319 12.8506 19.219C12.9752 19.0261 13.1961 18.9156 13.4271 18.9306C13.6024 18.9204 13.7737 18.9853 13.8972 19.1087C14.0207 19.2321 14.0845 19.402 14.0723 19.5752ZM22.4482 18.9306C22.271 18.9255 22.105 19.0166 22.0158 19.1681V18.9713H21.6623V20.5931H22.0192V19.6838C22.0192 19.4158 22.1359 19.2665 22.3624 19.2665C22.4388 19.2655 22.5146 19.2793 22.5855 19.3072L22.6953 18.9679C22.6138 18.9391 22.5279 18.9242 22.4414 18.9238L22.4482 18.9306ZM17.1766 18.9306C17.4115 18.9227 17.6438 18.9815 17.8458 19.1003L17.688 19.3853C17.5312 19.2961 17.354 19.2483 17.1732 19.2462C16.9776 19.2462 16.8609 19.3276 16.8609 19.4362C16.8609 19.5447 16.9844 19.5753 17.1389 19.5956L17.3105 19.6194C17.6674 19.6703 17.8836 19.7958 17.8836 20.1046C17.8836 20.4133 17.609 20.6338 17.1354 20.6338C16.8819 20.6407 16.6329 20.567 16.425 20.4235L16.5966 20.1487C16.7541 20.2642 16.9463 20.3239 17.1423 20.3183C17.386 20.3183 17.5164 20.247 17.5164 20.1215C17.5164 20.0299 17.4237 19.979 17.2281 19.9519L17.0565 19.9281C16.6893 19.8772 16.4902 19.7144 16.4902 19.4497C16.4902 19.1274 16.7613 18.9306 17.1766 18.9306ZM27.4054 18.9307C27.2281 18.9255 27.0622 19.0166 26.973 19.1682V18.9714H26.6195V20.5931H26.9764V19.6839C26.9764 19.4158 27.0931 19.2666 27.3196 19.2666C27.396 19.2655 27.4718 19.2794 27.5427 19.3073L27.6525 18.968C27.571 18.9392 27.4851 18.9243 27.3985 18.9239L27.4054 18.9307ZM23.0547 20.3939C22.8881 20.2325 22.7981 20.0091 22.8066 19.7787V19.7719C22.7981 19.5414 22.8881 19.3181 23.0547 19.1566C23.2212 18.9952 23.4489 18.9106 23.6818 18.9237C23.8961 18.9129 24.1067 18.9819 24.2721 19.1171L24.1005 19.4021C23.9771 19.309 23.8266 19.2579 23.6715 19.2562C23.3979 19.2781 23.1872 19.5039 23.1872 19.7753C23.1872 20.0466 23.3979 20.2725 23.6715 20.2944C23.8266 20.2927 23.9771 20.2415 24.1005 20.1485L24.2721 20.4335C24.1067 20.5686 23.8961 20.6376 23.6818 20.6269C23.4489 20.6399 23.2212 20.5553 23.0547 20.3939ZM26.1488 19.7785V18.9711H25.7919V19.1678C25.669 19.0114 25.4774 18.923 25.2771 18.9304C24.8033 18.9304 24.4192 19.3101 24.4192 19.7785C24.4192 20.247 24.8033 20.6267 25.2771 20.6267C25.4774 20.634 25.669 20.5457 25.7919 20.3892V20.586H26.1488V19.7785ZM25.3351 19.3175C25.0655 19.3075 24.8373 19.5124 24.8214 19.7786C24.8123 19.9141 24.8609 20.0472 24.9553 20.1458C25.0498 20.2443 25.1817 20.2994 25.319 20.2977C25.5888 20.2963 25.8079 20.082 25.8123 19.8154C25.8167 19.5487 25.6046 19.3275 25.3351 19.3175ZM20.5142 18.9307C20.0404 18.9372 19.6616 19.3223 19.6683 19.7907C19.6749 20.2592 20.0644 20.6336 20.5383 20.6271C20.7851 20.6396 21.0279 20.561 21.2195 20.4065L21.0479 20.1453C20.9124 20.2527 20.7445 20.3124 20.5709 20.3149C20.3255 20.3358 20.108 20.1598 20.0801 19.918H21.2984V19.7823C21.2984 19.2733 20.9793 18.9341 20.5194 18.9341L20.5142 18.9307ZM20.8043 19.3578C20.7264 19.284 20.6221 19.2438 20.5142 19.2461H20.5074C20.278 19.2384 20.0844 19.4132 20.0715 19.6397H20.9295C20.9272 19.533 20.8822 19.4316 20.8043 19.3578ZM30.117 20.3692C30.0976 20.3616 30.0769 20.3576 30.0559 20.3573H30.0569C30.0328 20.3564 30.0088 20.3604 29.9864 20.3692C29.9667 20.3772 29.9486 20.3887 29.9331 20.4032C29.918 20.4178 29.9058 20.4351 29.897 20.4542C29.8797 20.4943 29.8797 20.5397 29.897 20.5799C29.925 20.6396 29.9852 20.6779 30.0517 20.6784C30.0742 20.6785 30.0965 20.6738 30.117 20.6649C30.1368 20.6569 30.1548 20.6454 30.1703 20.6309C30.1854 20.6162 30.1977 20.5989 30.2064 20.5799C30.224 20.5398 30.224 20.4943 30.2064 20.4542C30.1977 20.4351 30.1854 20.4178 30.1703 20.4032C30.1548 20.3887 30.1368 20.3772 30.117 20.3692ZM30.0526 20.6444C30.0692 20.6443 30.0856 20.6408 30.1008 20.6342C30.1155 20.6276 30.1289 20.6184 30.1402 20.607C30.1846 20.5589 30.1846 20.4851 30.1402 20.437C30.1289 20.4256 30.1155 20.4163 30.1008 20.4099C30.0851 20.4031 30.0682 20.3996 30.0511 20.3997C30.034 20.3997 30.0171 20.4032 30.0014 20.4099C29.986 20.4161 29.972 20.4254 29.9603 20.437C29.9159 20.4851 29.9159 20.5589 29.9603 20.607C29.9721 20.6186 29.986 20.6279 30.0014 20.6342C30.0187 20.6416 30.0374 20.645 30.0562 20.6444H30.0526ZM30.106 20.4556C30.0932 20.446 30.0774 20.4412 30.0614 20.442L29.9895 20.4437V20.5932H30.022V20.5371H30.0374L30.0837 20.5932H30.1231L30.0734 20.5371C30.0868 20.5362 30.0995 20.5308 30.1094 20.5218C30.1175 20.5138 30.1219 20.5027 30.1214 20.4913C30.1224 20.4776 30.1166 20.4643 30.106 20.4556ZM30.0236 20.4707V20.5115H30.0613C30.068 20.5135 30.0752 20.5135 30.0819 20.5115C30.0843 20.5067 30.0843 20.501 30.0819 20.4962C30.0843 20.4914 30.0843 20.4857 30.0819 20.4809C30.0752 20.4789 30.068 20.4789 30.0613 20.4809L30.0236 20.4707ZM28.6497 19.3209C28.3801 19.3109 28.1519 19.5158 28.1361 19.782C28.127 19.9175 28.1755 20.0506 28.27 20.1491C28.3645 20.2477 28.4963 20.3028 28.6337 20.3011C28.9034 20.2997 29.1226 20.0854 29.127 19.8187C29.1313 19.5521 28.9193 19.3309 28.6497 19.3209ZM16.0854 19.7819V18.9711H15.7284V19.1678C15.6055 19.0114 15.4139 18.923 15.2137 18.9304C14.7398 18.9304 14.3557 19.3101 14.3557 19.7785C14.3557 20.247 14.7398 20.6267 15.2137 20.6267C15.4139 20.634 15.6055 20.5457 15.7284 20.3892V20.586H16.0854V19.7819ZM15.2703 19.3209C15.0008 19.3109 14.7726 19.5158 14.7567 19.782H14.7533C14.7441 19.9181 14.7931 20.0517 14.8884 20.1504C14.9836 20.2491 15.1164 20.3037 15.2543 20.3011C15.5241 20.2997 15.7432 20.0854 15.7476 19.8187C15.7519 19.5521 15.5399 19.3309 15.2703 19.3209Z" fill="#231F20"/>
<path d="M17.7271 6.61298H23.1323V16.2162H17.7271V6.61298Z" fill="#FF5F00"/>
<path d="M18.0699 11.4157C18.0679 9.54149 18.938 7.77047 20.4294 6.61327C17.8966 4.64546 14.2594 4.93209 12.0739 7.27172C9.88845 9.61134 9.88845 13.2185 12.0739 15.5581C14.2594 17.8977 17.8966 18.1843 20.4294 16.2165C18.9385 15.0597 18.0684 13.2894 18.0699 11.4157Z" fill="#EB001B"/>
<path d="M30.4254 11.4155C30.4253 13.7537 29.0748 15.8866 26.9474 16.9084C24.8201 17.9302 22.2893 17.6614 20.4299 16.2163C21.9202 15.0585 22.7903 13.2884 22.7903 11.4146C22.7903 9.54088 21.9202 7.77083 20.4299 6.61301C22.2893 5.16788 24.8201 4.89913 26.9474 5.9209C29.0748 6.94268 30.4253 9.0756 30.4254 11.4138V11.4155Z" fill="#F79E1B"/>
<path fill-rule="evenodd" clip-rule="evenodd" d="M29.8349 15.0163V15.2841H29.7988V15.0163H29.7112V14.9609H29.9157V15.0163H29.8349ZM30.2312 14.9609V15.2841L30.1951 15.2865V15.0417L30.1281 15.2518H30.0817L30.0147 15.0417V15.2841H29.97V14.9609H30.025L30.0972 15.1918L30.1693 14.9609H30.2312Z" fill="#F79E1B"/>
</svg>
